HIERARCHY
ROOT hip
{
  OFFSET -287.714 -5.27641 18.5681
  CHANNELS 6 Xposition Yposition Zposition Zrotation Xrotation Yrotation
  JOINT abdomen
  {
    OFFSET 0 20.6881 -0.73152
    CHANNELS 3 Zrotation Xrotation Yrotation
    JOINT chest
    {
      OFFSET 0 11.7043 -0.48768
      CHANNELS 3 Zrotation Xrotation Yrotation
      JOINT neck
      {
        OFFSET 0 22.1894 -2.19456
        CHANNELS 3 Zrotation Xrotation Yrotation
        JOINT head
        {
          OFFSET -0.24384 7.07133 1.2192
          CHANNELS 3 Zrotation Xrotation Yrotation
          JOINT leftEye
          {
            OFFSET 4.14528 8.04674 8.04672
            CHANNELS 3 Zrotation Xrotation Yrotation
            End Site
            {
              OFFSET 1 0 0
            }
          }
          JOINT rightEye
          {
            OFFSET -3.6576 8.04674 8.04672
            CHANNELS 3 Zrotation Xrotation Yrotation
            End Site
            {
              OFFSET 1 0 0
            }
          }
        }
      }
      JOINT rCollar
      {
        OFFSET -2.68224 19.2634 -4.8768
        CHANNELS 3 Zrotation Xrotation Yrotation
        JOINT rShldr
        {
          OFFSET -8.77824 -1.95073 1.46304
          CHANNELS 3 Zrotation Xrotation Yrotation
          JOINT rForeArm
          {
            OFFSET -28.1742 -1.7115 0.48768
            CHANNELS 3 Zrotation Xrotation Yrotation
            JOINT rHand
            {
              OFFSET -22.5879 0.773209 7.07136
              CHANNELS 3 Zrotation Xrotation Yrotation
              JOINT rThumb1
              {
                OFFSET -1.2192 -0.487915 3.41376
                CHANNELS 3 Zrotation Xrotation Yrotation
                JOINT rThumb2
                {
                  OFFSET -3.37035 -0.52449 3.41376
                  CHANNELS 3 Zrotation Xrotation Yrotation
                  End Site
                  {
                    OFFSET -1.78271 -1.18214 1.43049
                  }
                }
              }
              JOINT rIndex1
              {
                OFFSET -7.75947 0.938293 5.60832
                CHANNELS 3 Zrotation Xrotation Yrotation
                JOINT rIndex2
                {
                  OFFSET -2.54057 -0.884171 1.56538
                  CHANNELS 3 Zrotation Xrotation Yrotation
                  End Site
                  {
                    OFFSET -1.62519 -0.234802 1.16502
                  }
                }
              }
              JOINT rMid1
              {
                OFFSET -8.24714 1.18213 3.41376
                CHANNELS 3 Zrotation Xrotation Yrotation
                JOINT rMid2
                {
                  OFFSET -3.10165 -0.590103 1.0647
                  CHANNELS 3 Zrotation Xrotation Yrotation
                  End Site
                  {
                    OFFSET -2.48547 -0.328903 0.83742
                  }
                }
              }
              JOINT rRing1
              {
                OFFSET -8.82822 0.546677 1.51678
                CHANNELS 3 Zrotation Xrotation Yrotation
                JOINT rRing2
                {
                  OFFSET -2.60934 -0.819778 -0.0198488
                  CHANNELS 3 Zrotation Xrotation Yrotation
                  End Site
                  {
                    OFFSET -2.33842 -0.294052 0.168128
                  }
                }
              }
              JOINT rPinky1
              {
                OFFSET -8.27202 -0.0477905 -0.4584
                CHANNELS 3 Zrotation Xrotation Yrotation
                JOINT rPinky2
                {
                  OFFSET -1.82734 -0.647385 -0.700984
                  CHANNELS 3 Zrotation Xrotation Yrotation
                  End Site
                  {
                    OFFSET -1.69225 -0.51767 -0.607171
                  }
                }
              }
            }
          }
        }
      }
      JOINT lCollar
      {
        OFFSET 2.68224 19.2634 -4.8768
        CHANNELS 3 Zrotation Xrotation Yrotation
        JOINT lShldr
        {
          OFFSET 8.77824 -1.95073 1.46304
          CHANNELS 3 Zrotation Xrotation Yrotation
          JOINT lForeArm
          {
            OFFSET 28.1742 -1.7115 0.48768
            CHANNELS 3 Zrotation Xrotation Yrotation
            JOINT lHand
            {
              OFFSET 22.5879 0.773209 7.07136
              CHANNELS 3 Zrotation Xrotation Yrotation
              JOINT lThumb1
              {
                OFFSET 1.2192 -0.487915 3.41376
                CHANNELS 3 Zrotation Xrotation Yrotation
                JOINT lThumb2
                {
                  OFFSET 3.37035 -0.52449 3.41376
                  CHANNELS 3 Zrotation Xrotation Yrotation
                  End Site
                  {
                    OFFSET 1.78271 -1.18214 1.43049
                  }
                }
              }
              JOINT lIndex1
              {
                OFFSET 7.75947 0.938293 5.60832
                CHANNELS 3 Zrotation Xrotation Yrotation
                JOINT lIndex2
                {
                  OFFSET 2.54057 -0.884171 1.56538
                  CHANNELS 3 Zrotation Xrotation Yrotation
                  End Site
                  {
                    OFFSET 1.62519 -0.234802 1.16502
                  }
                }
              }
              JOINT lMid1
              {
                OFFSET 8.24714 1.18213 3.41376
                CHANNELS 3 Zrotation Xrotation Yrotation
                JOINT lMid2
                {
                  OFFSET 3.10165 -0.590103 1.0647
                  CHANNELS 3 Zrotation Xrotation Yrotation
                  End Site
                  {
                    OFFSET 2.48547 -0.328903 0.83742
                  }
                }
              }
              JOINT lRing1
              {
                OFFSET 8.82822 0.546677 1.51678
                CHANNELS 3 Zrotation Xrotation Yrotation
                JOINT lRing2
                {
                  OFFSET 2.60934 -0.819778 -0.0198488
                  CHANNELS 3 Zrotation Xrotation Yrotation
                  End Site
                  {
                    OFFSET 2.33842 -0.294052 0.168128
                  }
                }
              }
              JOINT lPinky1
              {
                OFFSET 8.27202 -0.0477905 -0.4584
                CHANNELS 3 Zrotation Xrotation Yrotation
                JOINT lPinky2
                {
                  OFFSET 1.82734 -0.647385 -0.700984
                  CHANNELS 3 Zrotation Xrotation Yrotation
                  End Site
                  {
                    OFFSET 1.69225 -0.51767 -0.607171
                  }
                }
              }
            }
          }
        }
      }
    }
  }
  JOINT rButtock
  {
    OFFSET -8.77824 4.35084 1.2192
    CHANNELS 3 Zrotation Xrotation Yrotation
    JOINT rThigh
    {
      OFFSET 0 -1.70687 -2.19456
      CHANNELS 3 Zrotation Xrotation Yrotation
      JOINT rShin
      {
        OFFSET 0 -36.8199 0.73152
        CHANNELS 3 Zrotation Xrotation Yrotation
        JOINT rFoot
        {
          OFFSET 0.73152 -45.1104 -5.12064
          CHANNELS 3 Zrotation Xrotation Yrotation
          End Site
          {
            OFFSET -1.1221 -3.69964 12.103
          }
        }
      }
    }
  }
  JOINT lButtock
  {
    OFFSET 8.77824 4.35084 1.2192
    CHANNELS 3 Zrotation Xrotation Yrotation
    JOINT lThigh
    {
      OFFSET 0 -1.70687 -2.19456
      CHANNELS 3 Zrotation Xrotation Yrotation
      JOINT lShin
      {
        OFFSET 0 -36.8199 0.73152
        CHANNELS 3 Zrotation Xrotation Yrotation
        JOINT lFoot
        {
          OFFSET -0.73152 -45.1104 -5.12064
          CHANNELS 3 Zrotation Xrotation Yrotation
          End Site
          {
            OFFSET 1.1221 -3.69964 12.103
          }
        }
      }
    }
  }
}
MOTION
Frames:	9
Frame Time:	0.00833333
-1.15785 -11.669 31.8821 9.0184 2.42027 -90.8624 3.75871 -0.270595 -5.83792 4.72177 -2.51727 -0.992759 -4.06209 -4.34688 -1.8767 3.69508 -2.68868 -2.35473 -0 0 0 -0 0 0 1.92353e-014 5.11874e-013 -9.36276e-014 76.9763 11.5025 1.93003 -16.4525 -9.11444 30.6337 -0.374794 17.1482 2.48543 6.4904e-010 5.40112e-010 -1.52975e-010 1.11997e-009 9.42745e-010 -2.73605e-010 6.49051e-010 5.40109e-010 -1.52982e-010 7.73091 5.47488 0.417314 6.49041e-010 5.40104e-010 -1.52978e-010 2.90554 0.965183 0.102902 6.49051e-010 5.40103e-010 -1.52968e-010 10.2786 0.731801 0.0259123 6.49034e-010 5.40106e-010 -1.52959e-010 2.22167 -0.733487 -0.20892 1.89327e-014 5.11865e-013 -9.39755e-014 -54.8941 24.4851 -26.391 20.7837 -14.0304 -40.6179 0.208657 12.9033 -1.84505 7.35659e-010 1.41121e-011 3.63156e-010 1.27361e-009 2.32117e-011 6.19854e-010 7.35614e-010 1.41165e-011 3.63175e-010 -7.73091 5.47488 -0.417314 7.35661e-010 1.41147e-011 3.63153e-010 -2.90554 0.965183 -0.102902 7.35653e-010 1.41152e-011 3.63149e-010 -10.2786 0.731801 -0.0259123 7.35664e-010 1.41173e-011 3.63137e-010 -2.22167 -0.733487 0.20892 -2.03217e-016 0 -3.88251e-019 -7.69573 -51.5332 -5.66351 -0.333714 17.0115 -1.55492 2.27864 15.8879 -14.08 2.03217e-016 0 3.88251e-019 5.85727 12.2695 -3.24321 -0.100125 17.0088 -2.29149 -0.810506 -24.8235 -0.815264 
-1.12279 -11.9026 32.051 9.10646 2.92824 -90.7144 4.53651 -0.0987467 -5.86 4.80582 -2.2714 -0.955843 -4.05711 -4.37037 -1.87893 3.63744 -2.7102 -2.35884 -0 0 0 -0 0 0 3.20284e-014 5.16376e-013 -1.0412e-013 76.9687 12.0689 2.04381 -16.5549 -9.21309 30.853 -0.376466 17.1844 2.49103 4.46691e-010 7.00755e-010 -1.17798e-009 7.56431e-010 1.21457e-009 -2.04348e-009 4.46698e-010 7.00754e-010 -1.17798e-009 7.73091 5.47488 0.417314 4.46689e-010 7.00748e-010 -1.17798e-009 2.90554 0.965183 0.102902 4.467e-010 7.00749e-010 -1.17797e-009 10.2786 0.731801 0.0259123 4.46684e-010 7.00752e-010 -1.17796e-009 2.22167 -0.733487 -0.20892 3.17848e-014 5.16365e-013 -1.04462e-013 -55.1119 25.2099 -26.1822 20.9124 -14.2035 -40.9463 0.211219 12.9802 -1.85645 1.98571e-009 6.64905e-010 2.72639e-010 3.4343e-009 1.14982e-009 4.48883e-010 1.98567e-009 6.64908e-010 2.72655e-010 -7.73091 5.47488 -0.417314 1.98571e-009 6.64907e-010 2.72633e-010 -2.90554 0.965183 -0.102902 1.9857e-009 6.64907e-010 2.72631e-010 -10.2786 0.731801 -0.0259123 1.98571e-009 6.64909e-010 2.72619e-010 -2.22167 -0.733487 0.20892 -2.03217e-016 0 -3.88251e-019 -6.91419 -51.7651 -5.25088 -0.365673 17.5452 -1.82504 2.39484 15.9754 -13.7348 2.03217e-016 0 3.88251e-019 6.56691 13.1719 -3.32996 -0.086718 17.5461 -2.31999 -0.778938 -25.0535 -1.02932 
-1.03858 -12.115 32.2304 9.1925 3.48231 -90.5941 5.36844 0.092901 -5.87834 4.88838 -1.99511 -0.91589 -4.05179 -4.39048 -1.87969 3.57996 -2.72985 -2.36109 -0 0 0 -0 0 0 4.74265e-014 4.77786e-013 -1.10785e-013 76.9511 12.601 2.14187 -16.6549 -9.31013 31.0676 -0.376815 17.192 2.49219 1.34903e-010 7.91852e-010 -2.42999e-009 2.00666e-010 1.36426e-009 -4.20459e-009 1.34906e-010 7.91854e-010 -2.42999e-009 7.73091 5.47488 0.417314 1.34897e-010 7.91849e-010 -2.42998e-009 2.90554 0.965183 0.102902 1.34911e-010 7.91852e-010 -2.42998e-009 10.2786 0.731801 0.0259123 1.34896e-010 7.91854e-010 -2.42997e-009 2.22167 -0.733487 -0.20892 4.72696e-014 4.77772e-013 -1.11102e-013 -55.3885 25.9438 -25.9343 21.0223 -14.3539 -41.225 0.214676 13.0822 -1.87157 3.51645e-009 1.54844e-009 7.18366e-011 6.07943e-009 2.67972e-009 8.38783e-011 3.51643e-009 1.54845e-009 7.18501e-011 -7.73091 5.47488 -0.417314 3.51645e-009 1.54844e-009 7.18287e-011 -2.90554 0.965183 -0.102902 3.51645e-009 1.54845e-009 7.1829e-011 -10.2786 0.731801 -0.0259123 3.51646e-009 1.54845e-009 7.18171e-011 -2.22167 -0.733487 0.20892 -2.03217e-016 0 -3.88251e-019 -6.08511 -51.9736 -4.8365 -0.396839 18.1803 -2.10999 2.51674 16.0107 -13.3705 2.03217e-016 0 3.88251e-019 7.3322 14.0658 -3.42617 -0.0737521 18.1572 -2.34334 -0.749344 -25.2669 -1.25265 
-0.91617 -12.2916 32.4181 9.27443 4.05983 -90.4775 6.22503 0.296075 -5.89936 4.96512 -1.69669 -0.873632 -4.04574 -4.40652 -1.87898 3.52331 -2.74628 -2.3614 -0 0 0 -0 0 0 5.32579e-014 4.59521e-013 -1.11865e-013 76.925 13.1003 2.22763 -16.7523 -9.4054 31.2773 -0.376029 17.1749 2.48956 -1.30414e-010 8.05339e-010 -3.40619e-009 -2.71148e-010 1.3811e-009 -5.88945e-009 -1.30415e-010 8.05346e-010 -3.40619e-009 7.73091 5.47488 0.417314 -1.30423e-010 8.05341e-010 -3.40618e-009 2.90554 0.965183 0.102902 -1.30408e-010 8.05346e-010 -3.40619e-009 10.2786 0.731801 0.0259123 -1.30421e-010 8.05345e-010 -3.40618e-009 2.22167 -0.733487 -0.20892 5.3189e-014 4.59504e-013 -1.12148e-013 -55.7195 26.6782 -25.6517 21.109 -14.4739 -41.4447 0.219182 13.2153 -1.89131 4.74615e-009 2.28727e-009 -1.16892e-010 8.20419e-009 3.95926e-009 -2.56805e-010 4.74614e-009 2.28726e-009 -1.1688e-010 -7.73091 5.47488 -0.417314 4.74615e-009 2.28726e-009 -1.16901e-010 -2.90554 0.965183 -0.102902 4.74615e-009 2.28727e-009 -1.16898e-010 -10.2786 0.731801 -0.0259123 4.74616e-009 2.28727e-009 -1.1691e-010 -2.22167 -0.733487 0.20892 -2.03217e-016 0 -3.88251e-019 -5.23644 -52.1465 -4.42944 -0.427963 18.8655 -2.40335 2.64314 16.0094 -12.9971 2.03217e-016 0 3.88251e-019 8.13883 14.9433 -3.52896 -0.0633305 18.8454 -2.37034 -0.721081 -25.475 -1.4749 
-0.758872 -12.4363 32.6121 9.3488 4.63153 -90.3217 7.0769 0.502495 -5.92942 5.03175 -1.38441 -0.829797 -4.03862 -4.41784 -1.87679 3.46816 -2.75815 -2.35963 -0 0 0 -0 0 0 3.73508e-014 5.25e-013 -1.05604e-013 76.8919 13.5682 2.30454 -16.8472 -9.49879 31.4823 -0.374305 17.1374 2.48377 -1.93349e-010 7.33153e-010 -3.60377e-009 -3.82834e-010 1.25438e-009 -6.23057e-009 -1.93353e-010 7.33162e-010 -3.60377e-009 7.73091 5.47488 0.417314 -1.9336e-010 7.33157e-010 -3.60375e-009 2.90554 0.965183 0.102902 -1.93344e-010 7.33163e-010 -3.60377e-009 10.2786 0.731801 0.0259123 -1.93356e-010 7.33161e-010 -3.60376e-009 2.22167 -0.733487 -0.20892 3.73451e-014 5.24981e-013 -1.05853e-013 -56.1005 27.4046 -25.3383 21.1679 -14.5555 -41.5964 0.224924 13.3857 -1.91658 5.09306e-009 2.5039e-009 -1.71187e-010 8.80377e-009 4.33478e-009 -3.54809e-010 5.09305e-009 2.5039e-009 -1.71177e-010 -7.73091 5.47488 -0.417314 5.09306e-009 2.5039e-009 -1.71197e-010 -2.90554 0.965183 -0.102902 5.09306e-009 2.5039e-009 -1.71192e-010 -10.2786 0.731801 -0.0259123 5.09306e-009 2.5039e-009 -1.71203e-010 -2.22167 -0.733487 0.20892 -2.03217e-016 0 -3.88251e-019 -4.39682 -52.272 -4.0393 -0.46116 19.5493 -2.69825 2.77243 15.9871 -12.6243 2.03217e-016 0 3.88251e-019 8.97227 15.7965 -3.63533 -0.0570971 19.6141 -2.40994 -0.693534 -25.6897 -1.68574 
-0.573251 -12.5456 32.8126 9.41591 5.20141 -90.1334 7.93413 0.716634 -5.97035 5.08979 -1.05261 -0.78425 -4.03043 -4.42464 -1.8733 3.41407 -2.76571 -2.35603 -0 0 0 -0 0 0 -1.87779e-014 7.95774e-013 -9.2292e-014 76.8513 14.0035 2.37131 -16.9394 -9.59017 31.6822 -0.371564 17.077 2.47447 9.07072e-011 5.11802e-010 -2.58508e-009 1.21317e-010 8.7728e-010 -4.47328e-009 9.07031e-011 5.11811e-010 -2.58508e-009 7.73091 5.47488 0.417314 9.06977e-011 5.11806e-010 -2.58507e-009 2.90554 0.965183 0.102902 9.07115e-011 5.11812e-010 -2.58508e-009 10.2786 0.731801 0.0259123 9.07014e-011 5.1181e-010 -2.58507e-009 2.22167 -0.733487 -0.20892 -1.87497e-014 7.95756e-013 -9.24985e-014 -56.5337 28.1281 -24.9925 21.1999 -14.5993 -41.6812 0.23219 13.5963 -1.9479 4.12159e-009 1.93089e-009 1.29761e-011 7.126e-009 3.34317e-009 -2.53032e-011 4.12159e-009 1.93089e-009 1.2985e-011 -7.73091 5.47488 -0.417314 4.12159e-009 1.93089e-009 1.29701e-011 -2.90554 0.965183 -0.102902 4.12159e-009 1.93089e-009 1.29739e-011 -10.2786 0.731801 -0.0259123 4.12159e-009 1.93089e-009 1.29636e-011 -2.22167 -0.733487 0.20892 -2.03217e-016 0 -3.88251e-019 -3.56457 -52.3523 -3.6705 -0.498062 20.2417 -2.99774 2.90694 15.945 -12.2494 2.03217e-016 0 3.88251e-019 9.84204 16.6328 -3.74872 -0.0528927 20.4678 -2.46203 -0.668015 -25.908 -1.88715 
-0.374307 -12.6148 33.0165 9.47806 5.78343 -89.9559 8.80658 0.940662 -6.0187 5.14051 -0.699504 -0.736717 -4.02132 -4.42714 -1.86844 3.36087 -2.76947 -2.35057 -0 0 0 -0 0 0 -1.03558e-013 1.20314e-012 -7.26123e-014 76.8036 14.4061 2.42664 -17.0292 -9.6797 31.877 -0.367777 16.9928 2.46152 6.04258e-010 1.66035e-010 -7.19474e-010 1.03332e-009 2.90169e-010 -1.2547e-009 6.04256e-010 1.66042e-010 -7.19484e-010 7.73091 5.47488 0.417314 6.04252e-010 1.66038e-010 -7.1947e-010 2.90554 0.965183 0.102902 6.04263e-010 1.66042e-010 -7.1948e-010 10.2786 0.731801 0.0259123 6.04254e-010 1.6604e-010 -7.19475e-010 2.22167 -0.733487 -0.20892 -1.03511e-013 1.20312e-012 -7.27676e-014 -57.0227 28.8508 -24.6114 21.2076 -14.6098 -41.7025 0.240994 13.8435 -1.98475 2.23549e-009 8.25147e-010 3.46541e-010 3.86818e-009 1.42933e-009 5.73055e-010 2.23549e-009 8.25149e-010 3.4655e-010 -7.73091 5.47488 -0.417314 2.23549e-009 8.25151e-010 3.46541e-010 -2.90554 0.965183 -0.102902 2.23549e-009 8.25151e-010 3.46542e-010 -10.2786 0.731801 -0.0259123 2.2355e-009 8.25151e-010 3.46533e-010 -2.22167 -0.733487 0.20892 -2.03217e-016 0 -3.88251e-019 -2.7301 -52.3922 -3.31934 -0.536026 20.9622 -3.30456 3.0476 15.8754 -11.8692 2.03217e-016 0 3.88251e-019 10.7518 17.4533 -3.86944 -0.0496434 21.4035 -2.52332 -0.644233 -26.1259 -2.08303 
-0.17162 -12.6461 33.2222 9.53293 6.35617 -89.7774 9.6646 1.16284 -6.07304 5.17928 -0.33915 -0.687708 -4.01116 -4.42471 -1.86189 3.30972 -2.7685 -2.34274 -0 0 0 -0 0 0 -1.84079e-013 1.52514e-012 -4.54006e-014 76.7508 14.7789 2.47403 -17.1168 -9.76764 32.0676 -0.363216 16.8908 2.44583 1.11005e-009 -1.79855e-010 1.28536e-009 1.93382e-009 -2.96892e-010 2.20502e-009 1.11005e-009 -1.79851e-010 1.28535e-009 7.73091 5.47488 0.417314 1.11005e-009 -1.79854e-010 1.28536e-009 2.90554 0.965183 0.102902 1.11006e-009 -1.79853e-010 1.28536e-009 10.2786 0.731801 0.0259123 1.11005e-009 -1.79854e-010 1.28536e-009 2.22167 -0.733487 -0.20892 -1.84031e-013 1.52512e-012 -4.55139e-014 -57.5642 29.5591 -24.1973 21.1892 -14.5842 -41.6542 0.251138 14.1231 -2.02651 1.1202e-010 -4.04222e-010 6.62242e-010 1.99734e-010 -6.98434e-010 1.14339e-009 1.1202e-010 -4.04218e-010 6.62251e-010 -7.73091 5.47488 -0.417314 1.1202e-010 -4.04216e-010 6.62248e-010 -2.90554 0.965183 -0.102902 1.12011e-010 -4.04217e-010 6.62246e-010 -10.2786 0.731801 -0.0259123 1.1202e-010 -4.04217e-010 6.62238e-010 -2.22167 -0.733487 0.20892 -2.03217e-016 0 -3.88251e-019 -1.91088 -52.3834 -2.9837 -0.572796 21.6733 -3.61048 3.19025 15.7813 -11.493 2.03217e-016 0 3.88251e-019 11.6774 18.2401 -3.9896 -0.0499258 22.413 -2.59831 -0.61919 -26.3528 -2.26592 
0.0215328 -12.6385 33.4264 9.57795 6.89562 -89.5788 10.4784 1.37145 -6.13189 5.20152 0.0143925 -0.637724 -3.99977 -4.4167 -1.85331 3.26174 -2.76185 -2.33202 -0 0 0 -0 0 0 -2.27434e-013 1.5398e-012 -9.49197e-015 76.6949 15.1249 2.51702 -17.2025 -9.85422 32.2547 -0.358146 16.7771 2.42837 1.37084e-009 -4.01577e-010 2.72176e-009 2.40347e-009 -6.73845e-010 4.68573e-009 1.37084e-009 -4.01574e-010 2.72174e-009 7.73091 5.47488 0.417314 1.37084e-009 -4.01576e-010 2.72175e-009 2.90554 0.965183 0.102902 1.37085e-009 -4.01577e-010 2.72175e-009 10.2786 0.731801 0.0259123 1.37084e-009 -4.01577e-010 2.72175e-009 2.22167 -0.733487 -0.20892 -2.27401e-013 1.53978e-012 -9.59136e-015 -58.1541 30.2388 -23.7522 21.1422 -14.5197 -41.5303 0.262419 14.4308 -2.07256 -1.57159e-009 -1.34812e-009 7.92814e-010 -2.70991e-009 -2.33178e-009 1.38882e-009 -1.57159e-009 -1.34811e-009 7.92823e-010 -7.73091 5.47488 -0.417314 -1.57159e-009 -1.34811e-009 7.92823e-010 -2.90554 0.965183 -0.102902 -1.5716e-009 -1.34811e-009 7.92821e-010 -10.2786 0.731801 -0.0259123 -1.57159e-009 -1.34811e-009 7.92814e-010 -2.22167 -0.733487 0.20892 -2.03217e-016 0 -3.88251e-019 -1.12453 -52.3176 -2.66162 -0.607416 22.338 -3.90672 3.33061 15.6654 -11.1299 2.03217e-016 0 3.88251e-019 12.5941 18.9755 -4.10105 -0.0559181 23.488 -2.6917 -0.589887 -26.5982 -2.42836 
